<svg width="73" height="68" viewBox="0 0 73 68" fill="none" xmlns="http://www.w3.org/2000/svg">
<path opacity="0.25" d="M31.1757 5.67193L26.1679 7.54486C25.7694 7.69097 25.5037 8.07618 25.5037 8.50125C25.5037 8.92631 25.7694 9.31152 26.1679 9.45763L31.1757 11.3306L33.0486 16.3383C33.1947 16.7368 33.5799 17.0025 34.005 17.0025C34.43 17.0025 34.8153 16.7368 34.9614 16.3383L36.8343 11.3306L41.8421 9.45763C42.2406 9.31152 42.5062 8.92631 42.5062 8.50125C42.5062 8.07618 42.2406 7.69097 41.8421 7.54486L36.8343 5.67193L34.9614 0.66416C34.8153 0.265664 34.43 0 34.005 0C33.5799 0 33.1947 0.265664 33.0486 0.66416L31.1757 5.67193ZM6.12355 52.5218C3.6396 55.0057 3.6396 59.0438 6.12355 61.541L10.7195 66.137C13.2035 68.621 17.2416 68.621 19.7388 66.137L70.3877 15.4749C72.8716 12.991 72.8716 8.95287 70.3877 6.45563L65.7917 1.87293C63.3077 -0.611027 59.2696 -0.611027 56.7724 1.87293L6.12355 52.5218ZM64.3704 10.9719L50.423 24.9193L47.328 21.8243L61.2754 7.87694L64.3704 10.9719ZM0.99624 15.5679C0.398496 15.7937 0 16.3649 0 17.0025C0 17.6401 0.398496 18.2113 0.99624 18.4371L8.50125 21.2531L11.3173 28.7581C11.5431 29.3559 12.1143 29.7544 12.7519 29.7544C13.3895 29.7544 13.9606 29.3559 14.1865 28.7581L17.0025 21.2531L24.5075 18.4371C25.1052 18.2113 25.5037 17.6401 25.5037 17.0025C25.5037 16.3649 25.1052 15.7937 24.5075 15.5679L17.0025 12.7519L14.1865 5.24686C13.9606 4.64912 13.3895 4.25062 12.7519 4.25062C12.1143 4.25062 11.5431 4.64912 11.3173 5.24686L8.50125 12.7519L0.99624 15.5679ZM47.7531 49.5729C47.1553 49.7987 46.7569 50.3699 46.7569 51.0075C46.7569 51.6451 47.1553 52.2162 47.7531 52.4421L55.2581 55.2581L58.0741 62.7631C58.2999 63.3608 58.8711 63.7593 59.5087 63.7593C60.1463 63.7593 60.7175 63.3608 60.9433 62.7631L63.7593 55.2581L71.2643 52.4421C71.8621 52.2162 72.2606 51.6451 72.2606 51.0075C72.2606 50.3699 71.8621 49.7987 71.2643 49.5729L63.7593 46.7569L60.9433 39.2518C60.7175 38.6541 60.1463 38.2556 59.5087 38.2556C58.8711 38.2556 58.2999 38.6541 58.0741 39.2518L55.2581 46.7569L47.7531 49.5729Z" fill="white"/>
</svg>
