<svg width="205" height="148" viewBox="0 0 205 148" fill="none" xmlns="http://www.w3.org/2000/svg">
<path d="M202.484 21.6129C206.212 19.7271 210.751 21.5252 212.176 25.4529V25.4529C213.761 29.8226 210.703 34.4896 206.063 34.7802V34.7802C198.507 35.2537 195.728 25.0303 202.484 21.6129V21.6129Z" stroke="white" stroke-width="2" stroke-linejoin="round"/>
<path d="M202.484 21.6129C206.212 19.7271 210.751 21.5252 212.176 25.4529V25.4529C213.761 29.8226 210.703 34.4896 206.063 34.7802V34.7802C198.507 35.2537 195.728 25.0303 202.484 21.6129V21.6129Z" stroke="url(#paint0_linear_686_4589)" stroke-width="2" stroke-linejoin="round"/>
<path d="M216.52 14.92C212.773 16.5976 208.4 14.6448 207.149 10.7351V10.7351C205.714 6.25515 209.094 1.68775 213.798 1.75032V1.75032C221.174 1.84845 223.253 11.9058 216.52 14.92V14.92Z" stroke="white" stroke-width="2" stroke-linejoin="round"/>
<path d="M216.52 14.92C212.773 16.5976 208.4 14.6448 207.149 10.7351V10.7351C205.714 6.25515 209.094 1.68775 213.798 1.75032V1.75032C221.174 1.84845 223.253 11.9058 216.52 14.92V14.92Z" stroke="url(#paint1_linear_686_4589)" stroke-width="2" stroke-linejoin="round"/>
<path d="M209.226 37.4144C212.566 35.6587 216.696 37.0357 218.314 40.4444V40.4444C220.259 44.5419 217.614 49.3399 213.111 49.883V49.883C205.792 50.7657 202.701 40.8447 209.226 37.4144V37.4144Z" stroke="white" stroke-width="2" stroke-linejoin="round"/>
<path d="M209.226 37.4144C212.566 35.6587 216.696 37.0357 218.314 40.4444V40.4444C220.259 44.5419 217.614 49.3399 213.111 49.883V49.883C205.792 50.7657 202.701 40.8447 209.226 37.4144V37.4144Z" stroke="url(#paint2_linear_686_4589)" stroke-width="2" stroke-linejoin="round"/>
<path d="M170.161 57.8015C173.971 55.8791 178.607 57.6796 180.121 61.6693V61.6693C181.809 66.1198 178.784 70.9528 174.043 71.3785V71.3785C166.149 72.0873 163.086 61.3719 170.161 57.8015V57.8015Z" stroke="white" stroke-width="2" stroke-linejoin="round"/>
<path d="M170.161 57.8015C173.971 55.8791 178.607 57.6796 180.121 61.6693V61.6693C181.809 66.1198 178.784 70.9528 174.043 71.3785V71.3785C166.149 72.0873 163.086 61.3719 170.161 57.8015V57.8015Z" stroke="url(#paint3_linear_686_4589)" stroke-width="2" stroke-linejoin="round"/>
<path d="M190.732 66.4643C186.915 68.6051 182.087 66.8506 180.534 62.7583V62.7583C178.884 58.409 181.754 53.6655 186.372 53.1086V53.1086C194.158 52.1695 197.573 62.6284 190.732 66.4643V66.4643Z" stroke="white" stroke-width="2" stroke-linejoin="round"/>
<path d="M190.732 66.4643C186.915 68.6051 182.087 66.8506 180.534 62.7583V62.7583C178.884 58.409 181.754 53.6655 186.372 53.1086V53.1086C194.158 52.1695 197.573 62.6284 190.732 66.4643V66.4643Z" stroke="url(#paint4_linear_686_4589)" stroke-width="2" stroke-linejoin="round"/>
<path d="M185.19 50.0501C181.109 52.1954 176.086 50.0592 174.801 45.6315V45.6315C173.5 41.1506 176.687 36.6187 181.343 36.3269V36.3269C189.186 35.8355 192.145 46.3938 185.19 50.0501V50.0501Z" stroke="white" stroke-width="2" stroke-linejoin="round"/>
<path d="M185.19 50.0501C181.109 52.1954 176.086 50.0592 174.801 45.6315V45.6315C173.5 41.1506 176.687 36.6187 181.343 36.3269V36.3269C189.186 35.8355 192.145 46.3938 185.19 50.0501V50.0501Z" stroke="url(#paint5_linear_686_4589)" stroke-width="2" stroke-linejoin="round"/>
<path d="M205.111 98.5762C200.886 101.375 195.156 99.5162 193.38 94.7703V94.7703C191.685 90.2443 194.427 85.2736 199.16 84.2927V84.2927C207.653 82.532 212.342 93.7851 205.111 98.5762V98.5762Z" stroke="white" stroke-width="2" stroke-linejoin="round"/>
<path d="M205.111 98.5762C200.886 101.375 195.156 99.5162 193.38 94.7703V94.7703C191.685 90.2443 194.427 85.2736 199.16 84.2927V84.2927C207.653 82.532 212.342 93.7851 205.111 98.5762V98.5762Z" stroke="url(#paint6_linear_686_4589)" stroke-width="2" stroke-linejoin="round"/>
<path d="M182.073 90.875C186.297 88.4106 191.723 90.3436 193.438 94.9239V94.9239C195.197 99.6229 192.181 104.749 187.219 105.493V105.493C178.622 106.782 174.564 95.2553 182.073 90.875V90.875Z" stroke="white" stroke-width="2" stroke-linejoin="round"/>
<path d="M182.073 90.875C186.297 88.4106 191.723 90.3436 193.438 94.9239V94.9239C195.197 99.6229 192.181 104.749 187.219 105.493V105.493C178.622 106.782 174.564 95.2553 182.073 90.875V90.875Z" stroke="url(#paint7_linear_686_4589)" stroke-width="2" stroke-linejoin="round"/>
<path d="M197.157 81.8904C193.465 84.1414 188.635 82.5949 186.936 78.6178V78.6178C185.16 74.458 187.676 69.7202 192.118 68.8626V68.8626C199.883 67.363 203.91 77.7734 197.157 81.8904V81.8904Z" stroke="white" stroke-width="2" stroke-linejoin="round"/>
<path d="M197.157 81.8904C193.465 84.1414 188.635 82.5949 186.936 78.6178V78.6178C185.16 74.458 187.676 69.7202 192.118 68.8626V68.8626C199.883 67.363 203.91 77.7734 197.157 81.8904V81.8904Z" stroke="url(#paint8_linear_686_4589)" stroke-width="2" stroke-linejoin="round"/>
<path d="M176.652 74.1932C180.323 72.2249 184.891 73.828 186.526 77.6581V77.6581C188.358 81.9468 185.622 86.8054 181.006 87.4641V87.4641C173.157 88.5839 169.665 77.9403 176.652 74.1932V74.1932Z" stroke="white" stroke-width="2" stroke-linejoin="round"/>
<path d="M176.652 74.1932C180.323 72.2249 184.891 73.828 186.526 77.6581V77.6581C188.358 81.9468 185.622 86.8054 181.006 87.4641V87.4641C173.157 88.5839 169.665 77.9403 176.652 74.1932V74.1932Z" stroke="url(#paint9_linear_686_4589)" stroke-width="2" stroke-linejoin="round"/>
<path d="M132.84 97.3131C137.271 95.1322 142.594 97.5058 143.933 102.259V102.259C145.29 107.076 141.884 111.925 136.893 112.282V112.282C128.24 112.901 125.057 101.144 132.84 97.3131V97.3131Z" stroke="white" stroke-width="2" stroke-linejoin="round"/>
<path d="M132.84 97.3131C137.271 95.1322 142.594 97.5058 143.933 102.259V102.259C145.29 107.076 141.884 111.925 136.893 112.282V112.282C128.24 112.901 125.057 101.144 132.84 97.3131V97.3131Z" stroke="url(#paint10_linear_686_4589)" stroke-width="2" stroke-linejoin="round"/>
<path d="M155.358 106.459C150.905 109.057 145.198 106.751 143.8 101.788V101.788C142.508 97.1994 145.554 92.5224 150.273 91.8491V91.8491C158.839 90.6271 162.831 102.1 155.358 106.459V106.459Z" stroke="white" stroke-width="2" stroke-linejoin="round"/>
<path d="M155.358 106.459C150.905 109.057 145.198 106.751 143.8 101.788V101.788C142.508 97.1994 145.554 92.5224 150.273 91.8491V91.8491C158.839 90.6271 162.831 102.1 155.358 106.459V106.459Z" stroke="url(#paint11_linear_686_4589)" stroke-width="2" stroke-linejoin="round"/>
<path d="M150.041 88.4639C145.619 90.8353 140.144 88.4404 138.884 83.5835V83.5835C137.682 78.9533 140.924 74.3517 145.688 73.9239V73.9239C154.087 73.1698 157.472 84.4788 150.041 88.4639V88.4639Z" stroke="white" stroke-width="2" stroke-linejoin="round"/>
<path d="M150.041 88.4639C145.619 90.8353 140.144 88.4404 138.884 83.5835V83.5835C137.682 78.9533 140.924 74.3517 145.688 73.9239V73.9239C154.087 73.1698 157.472 84.4788 150.041 88.4639V88.4639Z" stroke="url(#paint12_linear_686_4589)" stroke-width="2" stroke-linejoin="round"/>
<path d="M192.065 132.763C197.761 129.1 205.375 132.04 207.131 138.581L207.219 138.909C208.831 144.912 204.633 150.916 198.44 151.463L197.748 151.524C187.343 152.443 182.674 138.801 191.46 133.151L192.065 132.763Z" stroke="white" stroke-width="2" stroke-linejoin="round"/>
<path d="M192.065 132.763C197.761 129.1 205.375 132.04 207.131 138.581L207.219 138.909C208.831 144.912 204.633 150.916 198.44 151.463L197.748 151.524C187.343 152.443 182.674 138.801 191.46 133.151L192.065 132.763Z" stroke="url(#paint13_linear_686_4589)" stroke-width="2" stroke-linejoin="round"/>
<path d="M222.085 142.123C216.403 146.124 208.375 143.217 206.572 136.506V136.506C205 130.653 209.006 124.679 215.018 123.913V123.913C225.362 122.593 230.611 136.119 222.085 142.123V142.123Z" stroke="white" stroke-width="2" stroke-linejoin="round"/>
<path d="M222.085 142.123C216.403 146.124 208.375 143.217 206.572 136.506V136.506C205 130.653 209.006 124.679 215.018 123.913V123.913C225.362 122.593 230.611 136.119 222.085 142.123V142.123Z" stroke="url(#paint14_linear_686_4589)" stroke-width="2" stroke-linejoin="round"/>
<path d="M187.017 110.152C192.004 107.057 198.572 109.49 200.339 115.087V115.087C202.027 120.437 198.461 126.01 192.896 126.718V126.718C183.311 127.938 178.807 115.248 187.017 110.152V110.152Z" stroke="white" stroke-width="2" stroke-linejoin="round"/>
<path d="M187.017 110.152C192.004 107.057 198.572 109.49 200.339 115.087V115.087C202.027 120.437 198.461 126.01 192.896 126.718V126.718C183.311 127.938 178.807 115.248 187.017 110.152V110.152Z" stroke="url(#paint15_linear_686_4589)" stroke-width="2" stroke-linejoin="round"/>
<path d="M168.562 147.878C163.089 151.395 155.783 148.435 154.303 142.1V142.1C153.032 136.662 156.746 131.32 162.285 130.617V130.617C172.236 129.353 177.001 142.454 168.562 147.878V147.878Z" stroke="white" stroke-width="2" stroke-linejoin="round"/>
<path d="M168.562 147.878C163.089 151.395 155.783 148.435 154.303 142.1V142.1C153.032 136.662 156.746 131.32 162.285 130.617V130.617C172.236 129.353 177.001 142.454 168.562 147.878V147.878Z" stroke="url(#paint16_linear_686_4589)" stroke-width="2" stroke-linejoin="round"/>
<path d="M213.561 118.456C208.604 121.884 201.743 119.535 199.929 113.787V113.787C198.3 108.627 201.584 103.212 206.913 102.273V102.273C216.378 100.603 221.466 112.989 213.561 118.456V118.456Z" stroke="white" stroke-width="2" stroke-linejoin="round"/>
<path d="M213.561 118.456C208.604 121.884 201.743 119.535 199.929 113.787V113.787C198.3 108.627 201.584 103.212 206.913 102.273V102.273C216.378 100.603 221.466 112.989 213.561 118.456V118.456Z" stroke="url(#paint17_linear_686_4589)" stroke-width="2" stroke-linejoin="round"/>
<path d="M140.896 138.21C146.402 135.076 153.373 138.121 154.814 144.29V144.29C156.139 149.961 152.085 155.475 146.277 155.9V155.9C136.202 156.638 132.117 143.206 140.896 138.21V138.21Z" stroke="white" stroke-width="2" stroke-linejoin="round"/>
<path d="M140.896 138.21C146.402 135.076 153.373 138.121 154.814 144.29V144.29C156.139 149.961 152.085 155.475 146.277 155.9V155.9C136.202 156.638 132.117 143.206 140.896 138.21V138.21Z" stroke="url(#paint18_linear_686_4589)" stroke-width="2" stroke-linejoin="round"/>
<path d="M161.724 125.852C156.854 128.874 150.448 126.325 148.987 120.783V120.783C147.692 115.876 150.946 110.932 155.964 110.18V110.18C165.123 108.806 169.593 120.968 161.724 125.852V125.852Z" stroke="white" stroke-width="2" stroke-linejoin="round"/>
<path d="M161.724 125.852C156.854 128.874 150.448 126.325 148.987 120.783V120.783C147.692 115.876 150.946 110.932 155.964 110.18V110.18C165.123 108.806 169.593 120.968 161.724 125.852V125.852Z" stroke="url(#paint19_linear_686_4589)" stroke-width="2" stroke-linejoin="round"/>
<path d="M136.996 116.73C141.873 114.109 147.919 116.736 149.331 122.09V122.09C150.687 127.23 147.082 132.351 141.786 132.808V132.808C132.517 133.607 128.8 121.134 136.996 116.73V116.73Z" stroke="white" stroke-width="2" stroke-linejoin="round"/>
<path d="M136.996 116.73C141.873 114.109 147.919 116.736 149.331 122.09V122.09C150.687 127.23 147.082 132.351 141.786 132.808V132.808C132.517 133.607 128.8 121.134 136.996 116.73V116.73Z" stroke="url(#paint20_linear_686_4589)" stroke-width="2" stroke-linejoin="round"/>
<path d="M89.4308 141.811C94.933 139.094 101.503 142.419 102.572 148.462V148.462C103.551 153.996 99.3847 159.108 93.7666 159.266V159.266C83.8908 159.544 80.5728 146.186 89.4308 141.811V141.811Z" stroke="white" stroke-width="2" stroke-linejoin="round"/>
<path d="M89.4308 141.811C94.933 139.094 101.503 142.419 102.572 148.462V148.462C103.551 153.996 99.3847 159.108 93.7666 159.266V159.266C83.8908 159.544 80.5728 146.186 89.4308 141.811V141.811Z" stroke="url(#paint21_linear_686_4589)" stroke-width="2" stroke-linejoin="round"/>
<path d="M115.688 152.557C110.2 155.681 103.274 152.427 102.174 146.208V146.208C101.24 140.925 105.039 135.978 110.384 135.516V135.516C120.149 134.674 124.206 147.709 115.688 152.557V152.557Z" stroke="white" stroke-width="2" stroke-linejoin="round"/>
<path d="M115.688 152.557C110.2 155.681 103.274 152.427 102.174 146.208V146.208C101.24 140.925 105.039 135.978 110.384 135.516V135.516C120.149 134.674 124.206 147.709 115.688 152.557V152.557Z" stroke="url(#paint22_linear_686_4589)" stroke-width="2" stroke-linejoin="round"/>
<path d="M110.916 130.744C105.739 133.525 99.3538 130.452 98.2985 124.67V124.67C97.3728 119.598 101.057 114.846 106.199 114.478V114.478C115.512 113.812 119.141 126.324 110.916 130.744V130.744Z" stroke="white" stroke-width="2" stroke-linejoin="round"/>
<path d="M110.916 130.744C105.739 133.525 99.3538 130.452 98.2985 124.67V124.67C97.3728 119.598 101.057 114.846 106.199 114.478V114.478C115.512 113.812 119.141 126.324 110.916 130.744V130.744Z" stroke="url(#paint23_linear_686_4589)" stroke-width="2" stroke-linejoin="round"/>
<defs>
<linearGradient id="paint0_linear_686_4589" x1="193.807" y1="18.0664" x2="193.807" y2="36.8979" gradientUnits="userSpaceOnUse">
<stop stop-color="#161616"/>
<stop offset="1" stop-color="#161616" stop-opacity="0"/>
</linearGradient>
<linearGradient id="paint1_linear_686_4589" x1="224.619" y1="1.62305" x2="224.619" y2="18.0651" gradientUnits="userSpaceOnUse">
<stop stop-color="#161616"/>
<stop offset="1" stop-color="#161616" stop-opacity="0"/>
</linearGradient>
<linearGradient id="paint2_linear_686_4589" x1="199.779" y1="34.1963" x2="199.779" y2="54.2032" gradientUnits="userSpaceOnUse">
<stop stop-color="#161616"/>
<stop offset="1" stop-color="#161616" stop-opacity="0"/>
</linearGradient>
<linearGradient id="paint3_linear_686_4589" x1="160.036" y1="54.2051" x2="160.036" y2="74.7415" gradientUnits="userSpaceOnUse">
<stop stop-color="#161616"/>
<stop offset="1" stop-color="#161616" stop-opacity="0"/>
</linearGradient>
<linearGradient id="paint4_linear_686_4589" x1="199.779" y1="48.7793" x2="199.779" y2="70.5298" gradientUnits="userSpaceOnUse">
<stop stop-color="#161616"/>
<stop offset="1" stop-color="#161616" stop-opacity="0"/>
</linearGradient>
<linearGradient id="paint5_linear_686_4589" x1="193.807" y1="34.1963" x2="193.807" y2="54.2032" gradientUnits="userSpaceOnUse">
<stop stop-color="#161616"/>
<stop offset="1" stop-color="#161616" stop-opacity="0"/>
</linearGradient>
<linearGradient id="paint6_linear_686_4589" x1="214.675" y1="75.9941" x2="214.675" y2="104.048" gradientUnits="userSpaceOnUse">
<stop stop-color="#161616"/>
<stop offset="1" stop-color="#161616" stop-opacity="0"/>
</linearGradient>
<linearGradient id="paint7_linear_686_4589" x1="171.708" y1="86.1592" x2="171.708" y2="111.591" gradientUnits="userSpaceOnUse">
<stop stop-color="#161616"/>
<stop offset="1" stop-color="#161616" stop-opacity="0"/>
</linearGradient>
<linearGradient id="paint8_linear_686_4589" x1="207.127" y1="61.3984" x2="207.127" y2="86.1584" gradientUnits="userSpaceOnUse">
<stop stop-color="#161616"/>
<stop offset="1" stop-color="#161616" stop-opacity="0"/>
</linearGradient>
<linearGradient id="paint9_linear_686_4589" x1="165.758" y1="70.5303" x2="165.758" y2="93.1203" gradientUnits="userSpaceOnUse">
<stop stop-color="#161616"/>
<stop offset="1" stop-color="#161616" stop-opacity="0"/>
</linearGradient>
<linearGradient id="paint10_linear_686_4589" x1="121.563" y1="93.1201" x2="121.563" y2="115.168" gradientUnits="userSpaceOnUse">
<stop stop-color="#161616"/>
<stop offset="1" stop-color="#161616" stop-opacity="0"/>
</linearGradient>
<linearGradient id="paint11_linear_686_4589" x1="165.758" y1="86.1592" x2="165.758" y2="111.591" gradientUnits="userSpaceOnUse">
<stop stop-color="#161616"/>
<stop offset="1" stop-color="#161616" stop-opacity="0"/>
</linearGradient>
<linearGradient id="paint12_linear_686_4589" x1="160.036" y1="70.5303" x2="160.036" y2="93.1203" gradientUnits="userSpaceOnUse">
<stop stop-color="#161616"/>
<stop offset="1" stop-color="#161616" stop-opacity="0"/>
</linearGradient>
<linearGradient id="paint13_linear_686_4589" x1="183.823" y1="125.358" x2="183.823" y2="155.091" gradientUnits="userSpaceOnUse">
<stop stop-color="#161616"/>
<stop offset="1" stop-color="#161616" stop-opacity="0"/>
</linearGradient>
<linearGradient id="paint14_linear_686_4589" x1="229.404" y1="118.784" x2="229.404" y2="150.415" gradientUnits="userSpaceOnUse">
<stop stop-color="#161616"/>
<stop offset="1" stop-color="#161616" stop-opacity="0"/>
</linearGradient>
<linearGradient id="paint15_linear_686_4589" x1="177.754" y1="104.047" x2="177.754" y2="131.932" gradientUnits="userSpaceOnUse">
<stop stop-color="#161616"/>
<stop offset="1" stop-color="#161616" stop-opacity="0"/>
</linearGradient>
<linearGradient id="paint16_linear_686_4589" x1="177.754" y1="125.371" x2="177.754" y2="155.091" gradientUnits="userSpaceOnUse">
<stop stop-color="#161616"/>
<stop offset="1" stop-color="#161616" stop-opacity="0"/>
</linearGradient>
<linearGradient id="paint17_linear_686_4589" x1="222.05" y1="95.1602" x2="222.05" y2="125.358" gradientUnits="userSpaceOnUse">
<stop stop-color="#161616"/>
<stop offset="1" stop-color="#161616" stop-opacity="0"/>
</linearGradient>
<linearGradient id="paint18_linear_686_4589" x1="130.884" y1="131.932" x2="130.884" y2="158.965" gradientUnits="userSpaceOnUse">
<stop stop-color="#161616"/>
<stop offset="1" stop-color="#161616" stop-opacity="0"/>
</linearGradient>
<linearGradient id="paint19_linear_686_4589" x1="171.708" y1="104.047" x2="171.708" y2="131.932" gradientUnits="userSpaceOnUse">
<stop stop-color="#161616"/>
<stop offset="1" stop-color="#161616" stop-opacity="0"/>
</linearGradient>
<linearGradient id="paint20_linear_686_4589" x1="126.181" y1="111.59" x2="126.181" y2="136.376" gradientUnits="userSpaceOnUse">
<stop stop-color="#161616"/>
<stop offset="1" stop-color="#161616" stop-opacity="0"/>
</linearGradient>
<linearGradient id="paint21_linear_686_4589" x1="78.0607" y1="136.376" x2="78.0607" y2="160.451" gradientUnits="userSpaceOnUse">
<stop stop-color="#161616"/>
<stop offset="1" stop-color="#161616" stop-opacity="0"/>
</linearGradient>
<linearGradient id="paint22_linear_686_4589" x1="126.181" y1="131.932" x2="126.181" y2="158.965" gradientUnits="userSpaceOnUse">
<stop stop-color="#161616"/>
<stop offset="1" stop-color="#161616" stop-opacity="0"/>
</linearGradient>
<linearGradient id="paint23_linear_686_4589" x1="121.563" y1="111.59" x2="121.563" y2="136.376" gradientUnits="userSpaceOnUse">
<stop stop-color="#161616"/>
<stop offset="1" stop-color="#161616" stop-opacity="0"/>
</linearGradient>
</defs>
</svg>
