<svg width="77" height="72" viewBox="0 0 77 72" fill="none" xmlns="http://www.w3.org/2000/svg">
<path opacity="0.25" d="M43.2114 51.6247C47.0502 51.0763 50.5094 48.8967 52.6608 45.5923L75.3985 10.4241C77.1702 7.68211 76.7203 4.05421 74.3298 1.81841C71.9393 -0.41739 68.2973 -0.614253 65.6819 1.35438L32.398 26.3278C29.0232 28.8589 27.0265 32.8102 26.9983 37.0287L43.2114 51.6247ZM40.4553 55.1964L24.1438 40.516C15.735 40.8254 8.99944 47.7578 8.99944 56.251C8.99944 56.7994 9.02757 57.3478 9.08381 57.8821C9.33692 60.3429 7.64953 63.0006 5.17468 63.0006H4.49972C2.01081 63.0006 0 65.0114 0 67.5003C0 69.9892 2.01081 72 4.49972 72H24.7485C33.4526 72 40.4975 64.9551 40.4975 56.251C40.4975 55.8994 40.4834 55.5479 40.4694 55.1964H40.4553Z" fill="white"/>
</svg>
