<svg width="1080" height="1080" viewBox="0 0 1080 1080" fill="none" xmlns="http://www.w3.org/2000/svg">
<mask id="path-1-inside-1_686_3267" fill="white">
<path fill-rule="evenodd" clip-rule="evenodd" d="M540 1080C838.234 1080 1080 838.234 1080 540C1080 241.766 838.234 0 540 0C241.766 0 0 241.766 0 540C0 838.234 241.766 1080 540 1080ZM269.021 788.302C302.672 770.833 338.219 756.501 375.279 745.758L383.607 737.746L538.729 399.562V395.612L538.999 399.562L694.121 737.746L702.449 745.758C739.508 756.501 775.056 770.833 808.707 788.302L539.022 195.645L538.751 201.987V195.645L269.021 788.302ZM538.855 722.572C582.325 722.572 624.665 727.334 665.426 736.317L615.999 628.569H461.419L411.969 736.384C452.842 727.357 495.273 722.572 538.855 722.572Z"/>
</mask>
<path d="M375.279 745.758L375.557 746.719L375.794 746.65L375.972 746.479L375.279 745.758ZM269.021 788.302L268.111 787.888L266.911 790.524L269.481 789.189L269.021 788.302ZM383.607 737.746L384.3 738.466L384.437 738.335L384.516 738.163L383.607 737.746ZM538.729 399.562L539.637 399.979L539.729 399.78V399.562H538.729ZM538.729 395.612L539.726 395.544L537.729 395.612H538.729ZM538.999 399.562L538.002 399.63L538.014 399.812L538.09 399.979L538.999 399.562ZM694.121 737.746L693.212 738.163L693.291 738.335L693.428 738.466L694.121 737.746ZM702.449 745.758L701.756 746.479L701.934 746.65L702.171 746.719L702.449 745.758ZM808.707 788.302L808.246 789.189L810.817 790.524L809.617 787.888L808.707 788.302ZM539.022 195.645L539.932 195.23L538.023 195.602L539.022 195.645ZM538.751 201.987H537.751L539.75 202.029L538.751 201.987ZM538.751 195.645H539.751L537.841 195.23L538.751 195.645ZM665.426 736.317L665.211 737.293L667.173 737.726L666.335 735.9L665.426 736.317ZM615.999 628.569L616.907 628.152L616.64 627.569H615.999V628.569ZM461.419 628.569V627.569H460.777L460.51 628.152L461.419 628.569ZM411.969 736.384L411.06 735.968L410.222 737.794L412.184 737.361L411.969 736.384ZM1079 540C1079 837.681 837.681 1079 540 1079V1081C838.786 1081 1081 838.786 1081 540H1079ZM540 1C837.681 1 1079 242.319 1079 540H1081C1081 241.214 838.786 -1 540 -1V1ZM1 540C1 242.319 242.319 1 540 1V-1C241.214 -1 -1 241.214 -1 540H1ZM540 1079C242.319 1079 1 837.681 1 540H-1C-1 838.786 241.214 1081 540 1081V1079ZM375 744.798C337.877 755.559 302.268 769.916 268.56 787.414L269.481 789.189C303.076 771.75 338.562 757.443 375.557 746.719L375 744.798ZM382.914 737.025L374.586 745.037L375.972 746.479L384.3 738.466L382.914 737.025ZM537.82 399.145L382.698 737.329L384.516 738.163L539.637 399.979L537.82 399.145ZM537.729 395.612V399.562H539.729V395.612H537.729ZM539.997 399.493L539.726 395.544L537.731 395.68L538.002 399.63L539.997 399.493ZM695.03 737.329L539.908 399.145L538.09 399.979L693.212 738.163L695.03 737.329ZM703.142 745.037L694.814 737.025L693.428 738.466L701.756 746.479L703.142 745.037ZM809.168 787.414C775.459 769.916 739.851 755.559 702.727 744.798L702.171 746.719C739.166 757.443 774.652 771.75 808.246 789.189L809.168 787.414ZM538.112 196.059L807.797 788.716L809.617 787.888L539.932 195.23L538.112 196.059ZM539.75 202.029L540.021 195.687L538.023 195.602L537.752 201.944L539.75 202.029ZM537.751 195.645V201.987H539.751V195.645H537.751ZM269.931 788.716L539.661 196.059L537.841 195.23L268.111 787.888L269.931 788.716ZM665.641 735.34C624.811 726.342 582.398 721.572 538.855 721.572V723.572C582.251 723.572 624.52 728.326 665.211 737.293L665.641 735.34ZM615.09 628.986L664.517 736.734L666.335 735.9L616.907 628.152L615.09 628.986ZM461.419 629.569H615.999V627.569H461.419V629.569ZM412.878 736.801L462.328 628.986L460.51 628.152L411.06 735.968L412.878 736.801ZM538.855 721.572C495.2 721.572 452.696 726.365 411.753 735.408L412.184 737.361C452.988 728.348 495.347 723.572 538.855 723.572V721.572Z" fill="#8C52FF" mask="url(#path-1-inside-1_686_3267)"/>
</svg>
