<svg width="24" height="27" viewBox="0 0 24 27" fill="none" xmlns="http://www.w3.org/2000/svg">
<path d="M16.875 6.75C16.875 6.08518 16.7441 5.42688 16.4896 4.81266C16.2352 4.19845 15.8623 3.64037 15.3922 3.17027C14.9221 2.70018 14.364 2.32727 13.7498 2.07286C13.1356 1.81845 12.4773 1.6875 11.8125 1.6875C11.1477 1.6875 10.4894 1.81845 9.87516 2.07286C9.26095 2.32727 8.70287 2.70018 8.23277 3.17027C7.76268 3.64037 7.38977 4.19845 7.13536 4.81266C6.88095 5.42688 6.75 6.08518 6.75 6.75C6.75 7.41482 6.88095 8.07312 7.13536 8.68734C7.38977 9.30155 7.76268 9.85963 8.23277 10.3297C8.70287 10.7998 9.26095 11.1727 9.87516 11.4271C10.4894 11.6816 11.1477 11.8125 11.8125 11.8125C12.4773 11.8125 13.1356 11.6816 13.7498 11.4271C14.364 11.1727 14.9221 10.7998 15.3922 10.3297C15.8623 9.85963 16.2352 9.30155 16.4896 8.68734C16.7441 8.07312 16.875 7.41482 16.875 6.75ZM5.0625 6.75C5.0625 4.95979 5.77366 3.2429 7.03953 1.97703C8.3054 0.711159 10.0223 0 11.8125 0C13.6027 0 15.3196 0.711159 16.5855 1.97703C17.8513 3.2429 18.5625 4.95979 18.5625 6.75C18.5625 8.54021 17.8513 10.2571 16.5855 11.523C15.3196 12.7888 13.6027 13.5 11.8125 13.5C10.0223 13.5 8.3054 12.7888 7.03953 11.523C5.77366 10.2571 5.0625 8.54021 5.0625 6.75ZM1.6875 25.3125H21.9375C21.8742 21.1096 18.4465 17.7188 14.2225 17.7188H9.40254C5.18379 17.7188 1.75605 21.1096 1.6875 25.3125ZM0 25.4338C0 20.2395 4.2082 16.0312 9.40254 16.0312H14.2225C19.4168 16.0312 23.625 20.2395 23.625 25.4338C23.625 26.2986 22.9236 27 22.0588 27H1.56621C0.701367 27 0 26.2986 0 25.4338Z" fill="white"/>
</svg>
