<svg width="24" height="27" viewBox="0 0 24 27" fill="none" xmlns="http://www.w3.org/2000/svg">
<path d="M5.0625 6.75C5.0625 4.95979 5.77366 3.2429 7.03953 1.97703C8.3054 0.711159 10.0223 0 11.8125 0C13.6027 0 15.3196 0.711159 16.5855 1.97703C17.8513 3.2429 18.5625 4.95979 18.5625 6.75C18.5625 8.54021 17.8513 10.2571 16.5855 11.523C15.3196 12.7888 13.6027 13.5 11.8125 13.5C10.0223 13.5 8.3054 12.7888 7.03953 11.523C5.77366 10.2571 5.0625 8.54021 5.0625 6.75ZM0 25.4338C0 20.2395 4.2082 16.0312 9.40254 16.0312H14.2225C19.4168 16.0312 23.625 20.2395 23.625 25.4338C23.625 26.2986 22.9236 27 22.0588 27H1.56621C0.701367 27 0 26.2986 0 25.4338Z" fill="white"/>
</svg>
